# xmcd
# Copyright (C) 1995-1998 Ti Kan
#
# Track frame offsets:
#       182
#       15525
#       28562
#       42475
#       57700
#       71225
#       86050
#       95150
#       108450
#       125400
#       140975
#       152350
#       170100
#       180687
#       191212
#       202412
#
# Disc length: 2947 seconds
#
# Revision: 0
# Processed by: cddbd v1.5.1PL0 Copyright (c) Steve Scherf et al.
# Submitted via: CD-Transfer v1.0
#
DISCID=fd0b8110
DTITLE=Ländler Super-Hitparade 3 - 
DYEAR=96
DGENRE=
TTITLE0=Dr Wentalaschieber
TTITLE1=Die ruhigen Weiber in der Waschküche
TTITLE2=Scharzenburger
TTITLE3=Klänge vom Pilatus
TTITLE4=Ueses Müeti
TTITLE5=So en Tag
TTITLE6=De Joggeli
TTITLE7=Abend am Vierwaldstättersee
TTITLE8=Waldvogel
TTITLE9=Güggel
TTITLE10=Schneehäsli
TTITLE11=Andreas
TTITLE12=Gyr's Wunsch
TTITLE13=Im Engel z'Udligenswil
TTITLE14=En urchige Muothataler
TTITLE15=Appenzeller Cherab
EXTD=
EXTT0=
EXTT1=
EXTT2=
EXTT3=
EXTT4=
EXTT5=
EXTT6=
EXTT7=
EXTT8=
EXTT9=
EXTT10=
EXTT11=
EXTT12=
EXTT13=
EXTT14=
EXTT15=
PLAYORDER=
